<?xml version="1.0" encoding="utf-8"?>
<!-- Generator: Adobe Illustrator 16.0.0, SVG Export Plug-In . SVG Version: 6.00 Build 0)  -->
<!DOCTYPE svg PUBLIC "-//W3C//DTD SVG 1.1//EN" "http://www.w3.org/Graphics/SVG/1.1/DTD/svg11.dtd">
<svg version="1.1" id="Capa_1" xmlns="http://www.w3.org/2000/svg" xmlns:xlink="http://www.w3.org/1999/xlink" x="0px" y="0px"
	 width="276.25px" height="104.234px" viewBox="0 0 276.25 104.234" enable-background="new 0 0 276.25 104.234"
	 xml:space="preserve">
<g>
	<path fill="#F6F8E0" d="M0.237,66.23c0,0,0.791,6.098,21.358,6.592c18.335,1.086,9.899,0.871,19.005,1.035
		c0.188,0.005,0.361,0.055,0.548,0.055h7.002h54.755l65.788,30.322h31.929l-37.68-30.322h31.823c4.521,0.506,38.86,0.024,49.45-1.42
		l10.367-23.542l5.531-12.283l0.936-2.082l2.52,1.232h12.064l-10.508-10.288l1-2.218l9.125-20.275L276.25,0h-21.955l-11.27,10.686
		l-7.103,6.732L222.069,30.55h-81.087l9.54-16.907h-23.571L101.244,30.55H59.41c-4.117,0-10.138,1.173-16.258,3.177
		c4.04-0.393,7.353-0.078,7.353,3.707c0,6.568-5.322,11.89-11.89,11.89H26.619h-3.597c-1.036,0-2.022,0.11-2.98,0.242
		c-1.219,0.169-4.248,1.02-8.024,2.556C-1.608,58.056-0.142,63.186,0.237,66.23z M168.323,40.77h16.547l2.281,8.558h-16.546
		L168.323,40.77z M140.936,40.77h16.547l2.281,8.558h-16.546L140.936,40.77z M113.549,40.77h16.546l2.282,8.558h-16.546
		L113.549,40.77z M86.163,40.77h16.546l2.282,8.558H88.445L86.163,40.77z"/>
	<path fill="#009B9A" d="M203.94,61.26c1.424,2.137,2.327,5.564,2.327,9.617c0,1.063-0.082,2.068-0.196,3.035
		c-0.328,2.726-1.082,5.013-2.131,6.592c18.609-0.347,32.676-3.273,38.195-6.592c0.711-0.429,1.318-0.862,1.734-1.296
		c0.557-0.58,0.854-1.164,0.854-1.739c0-0.031-0.023-0.063-0.023-0.096C244.458,66.449,227.967,61.703,203.94,61.26z"/>
	<path fill="#85D1D3" d="M207.096,73.931c0.127-0.938,0.219-1.931,0.219-3.027c0-4.626-1.306-7.904-2.57-9.11
		c-0.347-0.328-0.689-0.533-1-0.533c-0.045,0-0.096,0.032-0.141,0.041c-0.361,0.06-0.754,0.323-1.141,0.792
		c-1.17,1.407-2.283,4.535-2.283,8.811c0,1.097,0.092,2.09,0.219,3.027c0.375,2.723,1.196,4.74,2.064,5.787
		c0.387,0.469,0.779,0.737,1.141,0.792c0.045,0.009,0.096,0.046,0.141,0.046c0.311,0,0.653-0.205,1-0.533
		C205.708,79.104,206.68,76.959,207.096,73.931z"/>
	<polyline fill="#009B9A" points="141.127,30.471 150.571,13.623 127,13.623 101.293,30.529 	"/>
</g>
<path fill="#85D1D3" d="M43.498,33.661c4.119-0.389,7.489-0.012,7.489,3.734c0,6.502-5.544,12.031-12.243,12.031l-12.115-0.04
	l-3.49-0.04c-1.057,0-2.353,0.19-3.33,0.321C19.81,49.667,26.229,36.228,43.498,33.661z"/>
</svg>
