<?xml version="1.0" encoding="utf-8"?>
<!-- Generator: Adobe Illustrator 16.0.0, SVG Export Plug-In . SVG Version: 6.00 Build 0)  -->
<!DOCTYPE svg PUBLIC "-//W3C//DTD SVG 1.1//EN" "http://www.w3.org/Graphics/SVG/1.1/DTD/svg11.dtd">
<svg version="1.1" id="Capa_1" xmlns="http://www.w3.org/2000/svg" xmlns:xlink="http://www.w3.org/1999/xlink" x="0px" y="0px"
	 width="284.848px" height="115.151px" viewBox="0 0 284.848 115.151" enable-background="new 0 0 284.848 115.151"
	 xml:space="preserve">
<g>
	<path fill="#ADD9F4" d="M5.331,71.258c0,0,0.791,6.098,21.358,6.592c18.335,1.086,9.899,0.871,19.005,1.035
		c0.188,0.005,0.361,0.055,0.548,0.055h7.002h54.755l65.788,30.322h31.929l-37.68-30.322h31.823c4.521,0.506,38.86,0.024,49.45-1.42
		l10.367-23.542l5.531-12.283l0.936-2.082l2.52,1.232h12.064l-10.508-10.288l1-2.218l9.125-20.275l0.999-3.036h-21.955
		l-11.27,10.686l-7.103,6.732l-13.854,13.132h-81.087l9.54-16.907h-23.571l-25.707,16.907H64.504
		c-4.117,0-10.138,1.173-16.258,3.177c4.04-0.393,7.353-0.078,7.353,3.707c0,6.568-5.322,11.89-11.89,11.89H31.713h-3.597
		c-1.036,0-2.022,0.11-2.98,0.242c-1.219,0.169-4.248,1.02-8.024,2.556C3.485,63.083,4.952,68.213,5.331,71.258z M173.417,45.797
		h16.547l2.281,8.558h-16.546L173.417,45.797z M146.03,45.797h16.547l2.281,8.558h-16.546L146.03,45.797z M118.643,45.797h16.546
		l2.282,8.558h-16.546L118.643,45.797z M91.256,45.797h16.546l2.282,8.558H93.539L91.256,45.797z"/>
	<path fill="#273477" d="M209.034,66.287c1.424,2.137,2.327,5.564,2.327,9.617c0,1.063-0.082,2.068-0.196,3.035
		c-0.328,2.726-1.082,5.013-2.131,6.592c18.609-0.347,32.676-3.273,38.195-6.592c0.711-0.429,1.318-0.862,1.734-1.296
		c0.557-0.58,0.854-1.164,0.854-1.739c0-0.031-0.023-0.063-0.023-0.096C249.551,71.477,233.061,66.73,209.034,66.287z"/>
	<path fill="#5DA1D7" d="M212.19,78.958c0.127-0.938,0.219-1.931,0.219-3.027c0-4.626-1.306-7.904-2.57-9.11
		c-0.347-0.328-0.689-0.533-1-0.533c-0.045,0-0.096,0.032-0.141,0.041c-0.361,0.06-0.754,0.323-1.141,0.792
		c-1.17,1.407-2.283,4.535-2.283,8.811c0,1.097,0.092,2.09,0.219,3.027c0.375,2.723,1.196,4.74,2.064,5.787
		c0.387,0.469,0.779,0.737,1.141,0.792c0.045,0.009,0.096,0.046,0.141,0.046c0.311,0,0.653-0.205,1-0.533
		C210.801,84.131,211.774,81.986,212.19,78.958z"/>
	<polyline fill="#273477" points="146.221,35.498 155.665,18.65 132.094,18.65 106.387,35.557 	"/>
</g>
<path fill="#5DA1D7" d="M48.591,38.688c4.119-0.389,7.489-0.012,7.489,3.734c0,6.502-5.544,12.031-12.243,12.031l-12.115-0.04
	l-3.49-0.04c-1.057,0-2.353,0.19-3.33,0.321C24.903,54.694,31.323,41.255,48.591,38.688z"/>
</svg>
